<?xml version="1.0" standalone="no"?>
<!DOCTYPE svg PUBLIC "-//W3C//DTD SVG 20010904//EN"
 "http://www.w3.org/TR/2001/REC-SVG-20010904/DTD/svg10.dtd">
<svg version="1.0" xmlns="http://www.w3.org/2000/svg"
 width="500.000000pt" height="500.000000pt" viewBox="0 0 500.000000 500.000000"
 preserveAspectRatio="xMidYMid meet">

<g transform="translate(0.000000,500.000000) scale(0.100000,-0.100000)"
fill="#000000" stroke="none">
<path d="M2274 3806 c-173 -33 -369 -112 -510 -205 -268 -178 -461 -454 -552
-789 -24 -91 -26 -111 -26 -312 0 -200 2 -222 26 -310 126 -463 436 -800 871
-945 142 -47 255 -65 417 -65 162 0 275 18 417 65 435 145 750 487 870 945 34
129 43 388 19 530 -91 523 -469 929 -994 1067 -84 22 -122 26 -282 29 -127 2
-207 -1 -256 -10z m913 -255 c13 -19 23 -49 23 -69 0 -74 -178 -756 -266
-1021 -7 -21 135 -7 193 19 55 24 53 24 53 4 0 -25 -80 -53 -173 -60 l-86 -7
-27 -71 c-102 -274 -144 -331 -255 -355 -115 -25 -212 60 -211 185 0 65 27
117 85 171 63 58 114 81 209 96 l83 13 62 214 c34 118 62 221 63 229 0 8 -13
-4 -28 -25 -38 -51 -120 -127 -161 -148 -127 -66 -263 6 -278 146 -14 134 103
395 236 527 139 139 274 159 340 50 l19 -31 17 78 c10 44 20 83 22 87 11 19
58 1 80 -32z m-894 -11 c65 -25 122 -77 151 -139 35 -78 23 -302 -15 -264 -7
7 -6 27 2 57 27 106 -14 238 -90 290 -44 30 -118 51 -152 43 -42 -11 -105 -58
-132 -100 -32 -49 -51 -136 -43 -196 10 -76 34 -137 131 -341 94 -195 127
-290 140 -395 7 -55 8 -56 34 -50 14 3 52 18 84 32 31 14 60 23 64 20 13 -14
-23 -38 -102 -68 l-83 -32 -5 -42 c-18 -127 -98 -239 -190 -264 -62 -18 -161
-9 -196 17 -41 30 -54 65 -41 111 22 84 97 139 225 169 l80 18 3 52 c5 86 -22
166 -132 387 -57 116 -111 234 -120 264 -22 75 -20 166 5 246 17 55 31 78 73
120 83 84 196 107 309 65z"/>
<path d="M2917 3439 c-75 -40 -159 -144 -231 -286 -109 -217 -116 -386 -17
-408 46 -10 98 19 170 94 102 105 130 162 175 347 34 141 37 164 27 201 -20
75 -54 89 -124 52z"/>
<path d="M2703 2410 c-130 -26 -235 -133 -235 -240 0 -90 40 -129 119 -117 46
8 78 38 113 107 25 49 100 241 100 255 0 7 -46 5 -97 -5z"/>
<path d="M2065 2356 c-100 -25 -183 -87 -186 -139 -4 -74 16 -97 84 -97 48 0
54 3 98 49 37 38 53 65 68 116 12 37 21 71 21 76 0 12 -23 10 -85 -5z"/>
</g>
</svg>
