<?xml version="1.0" standalone="no"?>
<!DOCTYPE svg PUBLIC "-//W3C//DTD SVG 20010904//EN"
 "http://www.w3.org/TR/2001/REC-SVG-20010904/DTD/svg10.dtd">
<svg version="1.0" xmlns="http://www.w3.org/2000/svg"
 width="722.000000pt" height="722.000000pt" viewBox="0 0 722.000000 722.000000"
 preserveAspectRatio="xMidYMid meet">
<metadata>
Created by potrace 1.16, written by Peter Selinger 2001-2019
</metadata>
<g transform="translate(0.000000,722.000000) scale(0.100000,-0.100000)"
fill="#000000" stroke="none">
<path d="M0 3610 l0 -3610 3610 0 3610 0 0 3610 0 3610 -3610 0 -3610 0 0
-3610z m6263 -62 c-2 -464 -3 -851 -3 -860 0 -17 -40 -18 -690 -18 l-690 0 0
30 0 30 665 0 665 0 0 800 0 800 -2600 0 -2600 0 0 -800 0 -800 665 0 665 0 0
-30 0 -30 -690 2 -690 3 0 850 c0 468 0 853 0 858 0 4 1194 7 2653 7 l2652 0
-2 -842z m-1033 392 c0 -6 5 -54 11 -108 16 -148 38 -151 59 -8 20 142 -4 126
185 126 91 0 165 -4 165 -8 0 -32 -90 -308 -133 -407 l-52 -120 -3 -152 -4
-153 -194 0 -194 0 0 153 c0 151 0 154 -34 237 -29 70 -103 314 -130 423 l-6
27 165 0 c107 0 165 -4 165 -10z m-1337 -14 c79 -29 124 -98 136 -211 13 -115
-2 -216 -44 -285 l-33 -55 38 -115 c21 -63 40 -126 42 -140 l3 -25 -157 -3
-156 -2 -17 52 c-22 67 -63 148 -74 148 -12 0 -21 -53 -21 -131 l0 -69 -137 0
-136 0 6 122 c4 66 7 258 7 425 l0 303 253 0 c186 -1 262 -4 290 -14z m-1013
-110 c0 -63 3 -121 6 -130 8 -21 60 -21 68 0 3 9 6 67 6 130 l0 114 170 0 170
0 0 -307 c0 -170 -3 -359 -7 -420 l-6 -113 -162 0 -162 0 -5 108 c-6 111 -17
152 -44 152 -24 0 -34 -45 -34 -156 l0 -104 -165 0 -165 0 0 283 c0 156 -3
345 -7 420 l-6 137 171 0 172 0 0 -114z m-500 -34 l0 -128 -192 4 c-163 3
-196 1 -213 -11 -16 -13 -18 -19 -9 -34 9 -15 30 -19 110 -25 124 -9 172 -22
218 -60 62 -51 81 -98 81 -208 0 -112 -17 -157 -77 -200 -59 -43 -114 -50
-403 -50 l-265 0 5 118 c2 64 5 120 5 123 0 3 75 6 168 6 176 -1 206 4 216 30
12 30 -13 38 -122 38 -91 0 -114 4 -154 23 -57 28 -104 94 -114 159 -15 104
27 240 89 287 69 52 82 54 380 55 l277 1 0 -128z m2460 4 l0 -124 -172 -4
c-188 -4 -218 -11 -218 -53 0 -14 1 -26 3 -27 1 -1 88 -4 192 -7 l190 -6 3
-93 3 -92 -163 6 c-182 7 -218 0 -218 -40 0 -44 17 -48 205 -47 l175 2 0 -63
c0 -35 3 -87 6 -116 l7 -52 -379 2 -379 3 5 285 c3 157 4 345 3 418 l-2 132
370 0 369 0 0 -124z"/>
</g>
</svg>
